#Comment line ignore any data following # character 
#Hierarchical Translation and Rotation (.htr) file 
[Header]	
#Header keywords are followed by a single value 
FileType HTR		#Single word string
DataType HTRS		#Translation followed by rotation and scale data
FileVersion 1		#integer
NumSegments 84		#integer
NumFrames 2		#integer
DataFrameRate 30		#integer, data frame rate in this file
EulerRotationOrder ZYX
CalibrationUnits mm
RotationUnits Degrees
GlobalAxisofGravity Y
BoneLengthAxis Y
ScaleFactor 1.00
[SegmentNames&Hierarchy]
#CHILD	PARENT
MASTER GLOBAL
root MASTER
chest root
L_mid_tent01 root
R_mid_tent01 root
spine01 root
Bip01_Neck chest
L_humerus chest
R_humerus chest
weapon_bone chest
Bip01_Head Bip01_Neck
eye_left_bone Bip01_Head
eye_right_bone Bip01_Head
L_forearm L_humerus
L_front_hand L_forearm
L_weapon_bone L_forearm
L_front_hand01_01 L_front_hand
L_front_hand02_01 L_front_hand
L_front_hand03_01 L_front_hand
L_front_hand01_02 L_front_hand01_01
L_front_hand02_02 L_front_hand02_01
L_front_hand03_02 L_front_hand03_01
R_forearm R_humerus
R_front_hand R_forearm
R_weapon_bone R_forearm
R_front_hand01_01 R_front_hand
R_front_hand02_01 R_front_hand
R_front_hand03_01 R_front_hand
R_front_hand01_02 R_front_hand01_01
R_front_hand02_02 R_front_hand02_01
R_front_hand03_02 R_front_hand03_01
null_rope01_connect L_mid_tent01
Rope1_Seg01 null_rope01_connect
Rope1_Seg02 Rope1_Seg01
Rope1_Seg03 Rope1_Seg02
Rope1_Seg04 Rope1_Seg03
Rope1_Seg05 Rope1_Seg04
Rope1_Seg06 Rope1_Seg05
Rope1_Seg07 Rope1_Seg06
Rope1_Seg09 Rope1_Seg07
L_mid_hand01 Rope1_Seg09
L_mid_hand02 Rope1_Seg09
L_mid_hand03 Rope1_Seg09
null_rope02_connect R_mid_tent01
Rope2_Seg01 null_rope02_connect
Rope2_Seg02 Rope2_Seg01
Rope2_Seg03 Rope2_Seg02
Rope2_Seg04 Rope2_Seg03
Rope2_Seg05 Rope2_Seg04
Rope2_Seg06 Rope2_Seg05
Rope2_Seg07 Rope2_Seg06
Rope2_Seg09 Rope2_Seg07
R_mid_hand01 Rope2_Seg09
R_mid_hand02 Rope2_Seg09
R_mid_hand03 Rope2_Seg09
spine02 spine01
spine03 spine02
pelvis spine03
null_rope03_connect pelvis
null_rope04_connect pelvis
Rope3_Seg01 null_rope03_connect
Rope3_Seg02 Rope3_Seg01
Rope3_Seg03 Rope3_Seg02
Rope3_Seg04 Rope3_Seg03
Rope3_Seg05 Rope3_Seg04
Rope3_Seg06 Rope3_Seg05
Rope3_Seg07 Rope3_Seg06
Rope3_Seg08 Rope3_Seg07
Rope3_Seg09 Rope3_Seg08
R_rear_hand01 Rope3_Seg09
R_rear_hand02 Rope3_Seg09
R_rear_hand03 Rope3_Seg09
Rope4_Seg01 null_rope04_connect
Rope4_Seg02 Rope4_Seg01
Rope4_Seg03 Rope4_Seg02
Rope4_Seg04 Rope4_Seg03
Rope4_Seg05 Rope4_Seg04
Rope4_Seg06 Rope4_Seg05
Rope4_Seg07 Rope4_Seg06
Rope4_Seg08 Rope4_Seg07
Rope4_Seg09 Rope4_Seg08
L_rear_hand01 Rope4_Seg09
L_rear_hand02 Rope4_Seg09
L_rear_hand03 Rope4_Seg09
[BasePosition]
#SegmentName Tx, Ty, Tz, Rx, Ry, Rz, BoneLength
MASTER 0.000000 0.000000 0.000000 -90.000000 0.000000 0.000000 10.000000 
root 0.000000 0.000000 0.000000 0.000000 0.000000 0.000000 10.000000 
chest 0.000000 0.000000 0.000000 0.000000 0.000000 0.000000 10.000000 
L_mid_tent01 0.000000 0.000000 0.000000 0.000000 0.000000 0.000000 10.000000 
R_mid_tent01 0.000000 0.000000 0.000000 0.000000 0.000000 0.000000 10.000000 
spine01 0.000000 0.000000 0.000000 0.000000 0.000000 0.000000 10.000000 
Bip01_Neck 0.000000 0.000000 0.000000 0.000000 0.000000 0.000000 10.000000 
L_humerus 0.000000 0.000000 0.000000 0.000000 0.000000 0.000000 10.000000 
R_humerus 0.000000 0.000000 0.000000 0.000000 0.000000 0.000000 10.000000 
weapon_bone 0.000000 0.000000 0.000000 0.000000 0.000000 0.000000 10.000000 
Bip01_Head 0.000000 0.000000 0.000000 0.000000 0.000000 0.000000 10.000000 
eye_left_bone 0.000000 0.000000 0.000000 0.000000 0.000000 0.000000 10.000000 
eye_right_bone 0.000000 0.000000 0.000000 0.000000 0.000000 0.000000 10.000000 
L_forearm 0.000000 0.000000 0.000000 0.000000 0.000000 0.000000 10.000000 
L_front_hand 0.000000 0.000000 0.000000 0.000000 0.000000 0.000000 10.000000 
L_weapon_bone 0.000000 0.000000 0.000000 0.000000 0.000000 0.000000 10.000000 
L_front_hand01_01 0.000000 0.000000 0.000000 0.000000 0.000000 0.000000 10.000000 
L_front_hand02_01 0.000000 0.000000 0.000000 0.000000 0.000000 0.000000 10.000000 
L_front_hand03_01 0.000000 0.000000 0.000000 0.000000 0.000000 0.000000 10.000000 
L_front_hand01_02 0.000000 0.000000 0.000000 0.000000 0.000000 0.000000 10.000000 
L_front_hand02_02 0.000000 0.000000 0.000000 0.000000 0.000000 0.000000 10.000000 
L_front_hand03_02 0.000000 0.000000 0.000000 0.000000 0.000000 0.000000 10.000000 
R_forearm 0.000000 0.000000 0.000000 0.000000 0.000000 0.000000 10.000000 
R_front_hand 0.000000 0.000000 0.000000 0.000000 0.000000 0.000000 10.000000 
R_weapon_bone 0.000000 0.000000 0.000000 0.000000 0.000000 0.000000 10.000000 
R_front_hand01_01 0.000000 0.000000 0.000000 0.000000 0.000000 0.000000 10.000000 
R_front_hand02_01 0.000000 0.000000 0.000000 0.000000 0.000000 0.000000 10.000000 
R_front_hand03_01 0.000000 0.000000 0.000000 0.000000 0.000000 0.000000 10.000000 
R_front_hand01_02 0.000000 0.000000 0.000000 0.000000 0.000000 0.000000 10.000000 
R_front_hand02_02 0.000000 0.000000 0.000000 0.000000 0.000000 0.000000 10.000000 
R_front_hand03_02 0.000000 0.000000 0.000000 0.000000 0.000000 0.000000 10.000000 
null_rope01_connect 0.000000 0.000000 0.000000 0.000000 0.000000 0.000000 10.000000 
Rope1_Seg01 0.000000 0.000000 0.000000 0.000000 0.000000 0.000000 10.000000 
Rope1_Seg02 0.000000 0.000000 0.000000 0.000000 0.000000 0.000000 10.000000 
Rope1_Seg03 0.000000 0.000000 0.000000 0.000000 0.000000 0.000000 10.000000 
Rope1_Seg04 0.000000 0.000000 0.000000 0.000000 0.000000 0.000000 10.000000 
Rope1_Seg05 0.000000 0.000000 0.000000 0.000000 0.000000 0.000000 10.000000 
Rope1_Seg06 0.000000 0.000000 0.000000 0.000000 0.000000 0.000000 10.000000 
Rope1_Seg07 0.000000 0.000000 0.000000 0.000000 0.000000 0.000000 10.000000 
Rope1_Seg09 0.000000 0.000000 0.000000 0.000000 0.000000 0.000000 10.000000 
L_mid_hand01 0.000000 0.000000 0.000000 0.000000 0.000000 0.000000 10.000000 
L_mid_hand02 0.000000 0.000000 0.000000 0.000000 0.000000 0.000000 10.000000 
L_mid_hand03 0.000000 0.000000 0.000000 0.000000 0.000000 0.000000 10.000000 
null_rope02_connect 0.000000 0.000000 0.000000 0.000000 0.000000 0.000000 10.000000 
Rope2_Seg01 0.000000 0.000000 0.000000 0.000000 0.000000 0.000000 10.000000 
Rope2_Seg02 0.000000 0.000000 0.000000 0.000000 0.000000 0.000000 10.000000 
Rope2_Seg03 0.000000 0.000000 0.000000 0.000000 0.000000 0.000000 10.000000 
Rope2_Seg04 0.000000 0.000000 0.000000 0.000000 0.000000 0.000000 10.000000 
Rope2_Seg05 0.000000 0.000000 0.000000 0.000000 0.000000 0.000000 10.000000 
Rope2_Seg06 0.000000 0.000000 0.000000 0.000000 0.000000 0.000000 10.000000 
Rope2_Seg07 0.000000 0.000000 0.000000 0.000000 0.000000 0.000000 10.000000 
Rope2_Seg09 0.000000 0.000000 0.000000 0.000000 0.000000 0.000000 10.000000 
R_mid_hand01 0.000000 0.000000 0.000000 0.000000 0.000000 0.000000 10.000000 
R_mid_hand02 0.000000 0.000000 0.000000 0.000000 0.000000 0.000000 10.000000 
R_mid_hand03 0.000000 0.000000 0.000000 0.000000 0.000000 0.000000 10.000000 
spine02 0.000000 0.000000 0.000000 0.000000 0.000000 0.000000 10.000000 
spine03 0.000000 0.000000 0.000000 0.000000 0.000000 0.000000 10.000000 
pelvis 0.000000 0.000000 0.000000 0.000000 0.000000 0.000000 10.000000 
null_rope03_connect 0.000000 0.000000 0.000000 0.000000 0.000000 0.000000 10.000000 
null_rope04_connect 0.000000 0.000000 0.000000 0.000000 0.000000 0.000000 10.000000 
Rope3_Seg01 0.000000 0.000000 0.000000 0.000000 0.000000 0.000000 10.000000 
Rope3_Seg02 0.000000 0.000000 0.000000 0.000000 0.000000 0.000000 10.000000 
Rope3_Seg03 0.000000 0.000000 0.000000 0.000000 0.000000 0.000000 10.000000 
Rope3_Seg04 0.000000 0.000000 0.000000 0.000000 0.000000 0.000000 10.000000 
Rope3_Seg05 0.000000 0.000000 0.000000 0.000000 0.000000 0.000000 10.000000 
Rope3_Seg06 0.000000 0.000000 0.000000 0.000000 0.000000 0.000000 10.000000 
Rope3_Seg07 0.000000 0.000000 0.000000 0.000000 0.000000 0.000000 10.000000 
Rope3_Seg08 0.000000 0.000000 0.000000 0.000000 0.000000 0.000000 10.000000 
Rope3_Seg09 0.000000 0.000000 0.000000 0.000000 0.000000 0.000000 10.000000 
R_rear_hand01 0.000000 0.000000 0.000000 0.000000 0.000000 0.000000 10.000000 
R_rear_hand02 0.000000 0.000000 0.000000 0.000000 0.000000 0.000000 10.000000 
R_rear_hand03 0.000000 0.000000 0.000000 0.000000 0.000000 0.000000 10.000000 
Rope4_Seg01 0.000000 0.000000 0.000000 0.000000 0.000000 0.000000 10.000000 
Rope4_Seg02 0.000000 0.000000 0.000000 0.000000 0.000000 0.000000 10.000000 
Rope4_Seg03 0.000000 0.000000 0.000000 0.000000 0.000000 0.000000 10.000000 
Rope4_Seg04 0.000000 0.000000 0.000000 0.000000 0.000000 0.000000 10.000000 
Rope4_Seg05 0.000000 0.000000 0.000000 0.000000 0.000000 0.000000 10.000000 
Rope4_Seg06 0.000000 0.000000 0.000000 0.000000 0.000000 0.000000 10.000000 
Rope4_Seg07 0.000000 0.000000 0.000000 0.000000 0.000000 0.000000 10.000000 
Rope4_Seg08 0.000000 0.000000 0.000000 0.000000 0.000000 0.000000 10.000000 
Rope4_Seg09 0.000000 0.000000 0.000000 0.000000 0.000000 0.000000 10.000000 
L_rear_hand01 0.000000 0.000000 0.000000 0.000000 0.000000 0.000000 10.000000 
L_rear_hand02 0.000000 0.000000 0.000000 0.000000 0.000000 0.000000 10.000000 
L_rear_hand03 0.000000 0.000000 0.000000 0.000000 0.000000 0.000000 10.000000 
#Beginning of Data. Separated by tabs
#Fr	Tx	Ty	Tz	Rx	Ry	Rz	SF
[MASTER]
29 -0.000074 554.566467 0.000000 0.001660 0.001660 0.001660 554.566467
30 -0.000074 554.566467 0.000000 0.001660 0.001660 0.001660 554.566467
[root]
29 118.763153 306.515991 902.601318 -91.983360 -24.101885 -92.041153 960.596619
30 121.278503 306.718567 907.020142 -92.289009 -24.078283 -91.671356 965.127075
[chest]
29 -84.512650 -34.090519 0.000000 13.350819 -9.600871 174.103806 91.129311
30 -84.512650 -34.090519 0.000000 13.783620 -9.511764 174.181030 91.129311
[L_mid_tent01]
29 27.622150 21.992582 -251.990967 13.962255 34.426693 84.061874 254.452560
30 27.629557 21.988352 -252.038544 13.956793 34.203171 84.041321 254.500107
[R_mid_tent01]
29 23.228794 24.509907 226.238495 156.114487 -14.969576 77.126892 228.744751
30 23.228794 24.509907 226.238495 156.038528 -15.199636 77.265915 228.744751
[spine01]
29 -0.361383 -0.195265 0.000000 0.001869 0.001420 15.534141 0.410763
30 -0.361383 -0.195265 0.000000 0.001869 0.001420 15.534141 0.410763
[Bip01_Neck]
29 165.484543 71.581718 0.000119 175.896118 1.177290 24.871183 180.302734
30 165.484543 71.581718 0.000119 175.896118 1.177290 24.871183 180.302734
[L_humerus]
29 -13.983130 -135.272980 -120.471481 171.942474 19.336704 -114.029770 181.680161
30 -13.983130 -135.272980 -120.471481 171.723373 17.794367 -117.244446 181.680161
[R_humerus]
29 -13.983309 -135.273102 125.287651 -162.279892 -16.921515 -112.453323 184.909012
30 -13.983309 -135.273102 125.287651 -161.648026 -16.601128 -113.871147 184.909012
[weapon_bone]
29 235.964890 -300.705902 0.000000 0.000000 -89.951546 -128.212341 382.234833
30 235.964890 -300.705902 0.000000 0.000000 -89.951546 -128.212341 382.234833
[Bip01_Head]
29 185.837097 123.607025 -2.730255 -15.375861 4.798702 -52.279240 223.207474
30 185.902084 135.915680 0.869923 -7.395111 4.746775 -52.033394 230.289841
[eye_left_bone]
29 -24.626970 125.451866 -64.772606 0.000000 -90.000000 -99.840431 143.318359
30 -24.626970 125.451866 -64.772606 0.000000 -90.000000 -99.840431 143.318359
[eye_right_bone]
29 -24.626970 125.451866 64.327362 0.000000 -89.960434 80.159386 143.117676
30 -24.626970 125.451866 64.327362 0.000000 -89.960434 80.159386 143.117676
[L_forearm]
29 322.776093 0.000000 -0.000119 0.000223 -0.002337 -100.918365 322.776093
30 322.776093 0.000000 -0.000119 0.000223 -0.002337 -100.892738 322.776093
[L_front_hand]
29 241.149185 -0.042021 -3.300071 -179.500259 -2.210626 -4.178934 241.171753
30 241.149185 -0.042021 -3.300071 -179.518784 -2.217866 -3.723243 241.171753
[L_weapon_bone]
29 156.183838 0.000000 0.000000 0.000014 0.000007 0.000001 156.183838
30 156.183838 0.000000 0.000000 0.000014 0.000007 0.000001 156.183838
[L_front_hand01_01]
29 86.095154 20.947098 -0.655860 -0.366594 -0.477154 75.385574 88.609184
30 86.095154 20.947098 -0.655860 -0.366594 -0.477154 75.385574 88.609184
[L_front_hand02_01]
29 86.935165 -11.437475 24.513514 154.403519 -59.888931 -61.371990 91.046425
30 86.935165 -11.437475 24.513514 154.403519 -59.888931 -61.371990 91.046425
[L_front_hand03_01]
29 86.637497 -14.123976 -20.424902 -153.913849 58.118107 -62.702866 90.126129
30 86.637497 -14.123976 -20.424902 -153.913849 58.118122 -62.702866 90.126129
[L_front_hand01_02]
29 71.020905 -0.000179 0.000030 0.000334 -0.002323 -106.379684 71.020905
30 71.020905 -0.000179 0.000030 0.000334 -0.002323 -106.379684 71.020905
[L_front_hand02_02]
29 71.020927 -0.000119 0.000060 0.000334 -0.002323 -106.379684 71.020927
30 71.020927 -0.000119 0.000060 0.000334 -0.002323 -106.379684 71.020927
[L_front_hand03_02]
29 71.020905 -0.000060 0.000060 0.000334 -0.002323 -106.379684 71.020905
30 71.020905 -0.000060 0.000060 0.000334 -0.002323 -106.379684 71.020905
[R_forearm]
29 322.776428 -0.000060 0.000030 0.206702 0.040598 -102.072021 322.776428
30 322.776428 -0.000060 0.000030 0.206689 0.040663 -102.108047 322.776428
[R_front_hand]
29 238.847015 -0.006795 2.210259 4.382270 0.789941 -51.443207 238.857239
30 238.847015 -0.006795 2.210259 1.640578 0.792117 -51.438354 238.857239
[R_weapon_bone]
29 155.664093 0.002503 -0.000030 0.003487 0.001180 -90.988930 155.664078
30 155.664093 0.002503 -0.000030 0.003487 0.001180 -90.988930 155.664078
[R_front_hand01_01]
29 87.624611 14.231146 22.918642 -154.530319 -59.918819 61.625992 91.683487
30 87.624611 14.231146 22.918642 -154.414429 -59.888596 61.492863 91.683487
[R_front_hand02_01]
29 89.356956 14.367283 -19.491137 154.513275 58.278454 63.641407 92.579636
30 89.356956 14.367283 -19.491137 154.398972 58.244125 63.511211 92.579636
[R_front_hand03_01]
29 87.286232 -22.307278 -0.143439 0.161924 -0.423257 -75.705261 90.091743
30 87.286232 -22.307278 -0.143439 0.161646 -0.423363 -75.630119 90.091743
[R_front_hand01_02]
29 71.020905 0.000060 0.000119 0.002323 -0.000334 106.381714 71.020905
30 71.020905 0.000060 0.000119 0.002323 -0.000334 106.350830 71.020905
[R_front_hand02_02]
29 71.020844 -0.000030 -0.000119 0.002323 -0.000334 106.381714 71.020836
30 71.020844 -0.000030 -0.000119 0.002323 -0.000334 106.350830 71.020836
[R_front_hand03_02]
29 71.020905 0.000000 0.000030 0.002323 -0.000334 106.381714 71.020905
30 71.020905 0.000000 0.000030 0.002323 -0.000334 106.350830 71.020905
[null_rope01_connect]
29 328.732483 0.000000 -0.000238 -125.979088 -49.808262 160.257187 328.732483
30 328.732483 0.000000 -0.000238 -126.328789 -50.040508 160.693527 328.732483
[Rope1_Seg01]
29 5.590864 -5.462374 -1.703050 70.168503 -3.104742 -110.790947 7.999728
30 5.607414 -5.440826 -1.721649 70.195183 -0.706536 -109.798180 8.000609
[Rope1_Seg02]
29 139.999863 -0.000179 0.000000 -11.082589 -1.765307 -6.509836 139.999863
30 139.999863 -0.000179 0.000000 -9.935572 -1.595243 -6.750007 139.999863
[Rope1_Seg03]
29 139.999924 0.000060 -0.000060 -15.979636 -1.245324 -18.029879 139.999924
30 139.999924 0.000060 -0.000060 -14.747408 -1.061533 -18.671999 139.999924
[Rope1_Seg04]
29 139.999924 -0.000060 -0.000119 -16.230598 11.028812 -59.373981 139.999924
30 139.999924 -0.000060 -0.000119 -14.706036 10.597730 -59.250145 139.999924
[Rope1_Seg05]
29 139.999832 0.000119 -0.000060 1.946535 11.679033 -30.005814 139.999832
30 139.999832 0.000119 -0.000060 3.176881 10.429092 -29.246931 139.999832
[Rope1_Seg06]
29 139.999954 0.000119 -0.000060 6.831107 3.010530 -13.645206 139.999954
30 139.999954 0.000119 -0.000060 7.961849 2.291674 -13.892083 139.999954
[Rope1_Seg07]
29 139.999985 0.000060 0.000000 27.568132 1.237319 -22.668322 139.999985
30 139.999985 0.000060 0.000000 29.917799 -0.373159 -22.801350 139.999985
[Rope1_Seg09]
29 121.602913 0.000119 -0.000089 -89.793175 -1.359789 0.847147 121.602913
30 121.602913 0.000119 -0.000089 -89.793175 -1.359789 0.847147 121.602913
[L_mid_hand01]
29 103.859421 1.038730 8.195221 116.294914 -23.111715 -31.758038 104.187431
30 103.859421 1.038730 8.195221 116.294914 -23.111713 -31.758030 104.187431
[L_mid_hand02]
29 105.572853 -4.139662 -10.864139 -144.219818 17.447464 -35.360508 106.211075
30 105.572853 -4.139662 -10.864139 -144.219833 17.447466 -35.360519 106.211075
[L_mid_hand03]
29 104.641464 17.579376 -3.913581 -17.830780 17.153103 31.982925 106.179977
30 104.641464 17.579376 -3.913581 -17.830780 17.153103 31.982925 106.179977
[null_rope02_connect]
29 328.732849 0.000179 -0.000119 -78.871277 64.587227 61.533955 328.732849
30 328.732849 0.000179 -0.000119 -78.944069 64.125000 61.623108 328.732849
[Rope2_Seg01]
29 0.000047 0.000181 0.000000 73.123062 0.234660 -19.288357 0.000187
30 0.000046 0.000182 0.000000 73.004822 0.216791 -19.418037 0.000188
[Rope2_Seg02]
29 139.999741 -0.000060 -0.000119 3.267240 4.831611 0.189062 139.999756
30 139.999741 -0.000060 -0.000119 3.279482 4.844104 0.184986 139.999756
[Rope2_Seg03]
29 140.000107 0.000030 0.000000 3.963716 8.595924 -0.151919 140.000107
30 140.000107 0.000030 0.000000 3.980417 8.640987 -0.161512 140.000107
[Rope2_Seg04]
29 139.999802 0.000000 -0.000060 4.234282 19.115658 -1.739330 139.999802
30 139.999802 0.000000 -0.000060 4.232555 19.323732 -1.797740 139.999802
[Rope2_Seg05]
29 139.999985 -0.000060 0.000119 -4.851924 44.536396 -14.079392 139.999985
30 139.999985 -0.000060 0.000119 -5.045903 44.809563 -14.336376 139.999985
[Rope2_Seg06]
29 139.999893 -0.000030 -0.000119 -4.856495 24.809378 -4.914606 139.999893
30 139.999893 -0.000030 -0.000119 -4.870336 24.569054 -4.803829 139.999893
[Rope2_Seg07]
29 139.999893 0.000060 -0.000060 -9.447414 12.758666 4.092834 139.999893
30 139.999893 0.000060 -0.000060 -9.641303 12.834665 4.175605 139.999893
[Rope2_Seg09]
29 121.338966 0.000089 -0.000060 33.793236 -1.359788 -0.847141 121.338966
30 121.338966 0.000089 -0.000060 33.793236 -1.359788 -0.847141 121.338966
[R_mid_hand01]
29 104.680779 11.144459 -10.335981 -41.523792 25.424656 28.595957 105.778534
30 104.680779 11.144459 -10.335981 -41.523792 25.424656 28.595957 105.778534
[R_mid_hand02]
29 104.070427 2.443552 8.231699 72.847389 -32.746803 10.013901 104.424065
30 104.070427 2.443552 8.231699 72.847389 -32.746803 10.013901 104.424065
[R_mid_hand03]
29 106.028137 -11.221827 -5.996406 -167.901306 10.259192 -37.009720 106.788818
30 106.028137 -11.221827 -5.996406 -167.901306 10.259192 -37.009720 106.788818
[spine02]
29 129.756927 0.001550 0.000119 -0.245322 -4.052059 -4.355546 129.756927
30 129.756927 0.001550 0.000119 -0.245322 -4.052060 -4.355547 129.756927
[spine03]
29 78.613846 0.087372 -4.898873 0.369659 4.260734 -4.885720 78.766380
30 78.613846 0.087372 -4.898873 0.369659 4.260734 -4.885720 78.766380
[pelvis]
29 169.435242 0.051022 0.000000 -0.010007 -0.191417 -1.897554 169.435257
30 169.435242 0.051022 0.000000 -0.010007 -0.191417 -1.897554 169.435257
[null_rope03_connect]
29 -1.257226 -2.466202 137.391083 -116.731598 -86.950974 -133.581192 137.418976
30 -1.257226 -2.466202 137.391083 -123.660194 -87.024811 -126.676292 137.418976
[null_rope04_connect]
29 -1.259640 -2.480268 -137.844437 -116.731598 -86.950974 -133.581192 137.872513
30 -1.259640 -2.480268 -137.844437 -123.660194 -87.024811 -126.676292 137.872513
[Rope3_Seg01]
29 0.000000 0.000000 0.000000 -27.456167 -70.761696 -18.405598 0.000000
30 0.000000 0.000000 0.000000 -26.529278 -70.375046 -19.383631 0.000000
[Rope3_Seg02]
29 139.999924 -0.000119 0.000060 -0.099211 -3.106762 3.216941 139.999924
30 139.999924 -0.000119 0.000060 -0.113527 -3.144722 3.203785 139.999924
[Rope3_Seg03]
29 139.999924 -0.000119 0.000119 -0.383118 -4.597029 4.770107 139.999924
30 139.999924 -0.000119 0.000119 -0.405580 -4.668776 4.761483 139.999924
[Rope3_Seg04]
29 139.999924 0.000119 0.000000 -1.251162 -7.409907 7.676398 139.999924
30 139.999924 0.000119 0.000000 -1.285280 -7.566510 7.693505 139.999924
[Rope3_Seg05]
29 139.999924 -0.000238 0.000060 -5.429378 -16.827908 17.177286 139.999924
30 139.999924 -0.000238 0.000060 -5.516805 -17.208860 17.253296 139.999924
[Rope3_Seg06]
29 139.999893 -0.000119 -0.000060 -5.654080 -15.653526 14.910109 139.999893
30 139.999893 -0.000119 -0.000060 -5.638525 -15.950948 14.902761 139.999893
[Rope3_Seg07]
29 139.999771 0.000060 -0.000119 -0.011066 -1.121034 2.311671 139.999771
30 139.999771 0.000060 -0.000119 -0.034543 -1.256597 2.398544 139.999771
[Rope3_Seg08]
29 139.999985 -0.000060 0.000000 -0.433464 -2.455991 2.984345 139.999985
30 139.999985 -0.000060 0.000000 -0.442750 -2.574336 3.039507 139.999985
[Rope3_Seg09]
29 90.185997 -0.000179 -0.000060 89.793228 -1.359877 -0.847183 90.185997
30 90.185997 -0.000179 -0.000060 89.793228 -1.359877 -0.847183 90.185997
[R_rear_hand01]
29 103.366196 -6.073594 -10.757982 -161.551193 16.666374 -30.088671 104.101845
30 103.366196 -6.073594 -10.757982 -161.551193 16.666374 -30.088671 104.101845
[R_rear_hand02]
29 100.509819 12.039542 -7.992327 -34.280552 19.289745 28.875523 101.543350
30 100.509819 12.039542 -7.992327 -34.280552 19.289745 28.875523 101.543350
[R_rear_hand03]
29 101.539970 5.215704 5.435467 83.366440 -30.933914 7.284830 101.819031
30 101.539970 5.215704 5.435467 83.366440 -30.933914 7.284830 101.819031
[Rope4_Seg01]
29 -0.000031 -0.000062 0.000124 -57.646782 -29.421635 -167.951111 0.000142
30 -0.000031 -0.000062 0.000123 -57.165428 -29.480307 -168.369766 0.000141
[Rope4_Seg02]
29 139.999985 0.000060 0.000119 8.913592 10.297509 -6.120887 139.999985
30 139.999985 0.000060 0.000119 8.921200 10.283695 -6.068855 139.999985
[Rope4_Seg03]
29 139.999924 0.000000 -0.000238 14.142030 11.190294 -9.718967 139.999924
30 139.999924 0.000000 -0.000238 14.139975 11.155433 -9.627616 139.999924
[Rope4_Seg04]
29 139.999985 0.000000 0.000119 14.448950 5.685778 -13.111532 139.999985
30 139.999985 0.000000 0.000119 14.466249 5.672836 -13.016973 139.999985
[Rope4_Seg05]
29 139.999802 -0.000060 -0.000119 12.749372 6.195566 -11.944696 139.999802
30 139.999802 -0.000060 -0.000119 12.819627 6.227162 -11.870656 139.999802
[Rope4_Seg06]
29 139.999924 0.000000 0.000060 16.727764 10.134829 -15.857839 139.999924
30 139.999924 0.000000 0.000060 16.856050 10.172178 -15.732330 139.999924
[Rope4_Seg07]
29 139.999802 0.000000 0.000000 12.582875 3.869907 -15.499029 139.999802
30 139.999802 0.000000 0.000000 12.685867 3.886440 -15.387272 139.999802
[Rope4_Seg08]
29 139.999924 0.000000 0.000119 3.975055 -0.311166 -8.846335 139.999924
30 139.999924 0.000000 0.000119 4.033766 -0.303226 -8.801705 139.999924
[Rope4_Seg09]
29 90.185791 0.000060 0.000060 -135.617828 2.228885 0.850567 90.185791
30 90.185791 0.000060 0.000060 -135.617828 2.228885 0.850567 90.185791
[L_rear_hand01]
29 101.696655 -8.392275 -7.654577 -34.454281 -18.946800 151.655121 102.329041
30 101.696655 -8.392275 -7.654577 -34.454281 -18.946800 151.655121 102.329041
[L_rear_hand02]
29 102.726799 -1.568258 5.773216 83.407906 30.330435 172.796509 102.900848
30 102.726799 -1.568258 5.773216 83.407906 30.330435 172.796509 102.900848
[L_rear_hand03]
29 104.552910 9.721220 -10.420293 -161.379868 -16.473232 -150.512238 105.519653
30 104.552910 9.721220 -10.420293 -161.379868 -16.473232 -150.512238 105.519653
